# xmcd
#
# Track frame offsets: 
#        150
#        12495
#        26719
#        44207
#        75096
#        91515
#        114977
#        127300
#        144336
#        169711
#
# Disc length: 2758 seconds
#
# Revision: 2
# Processed by: cddbd v1.5.2PL0 Copyright (c) Steve Scherf et al.
# Submitted via: ExactAudioCopy v0.99pb5
#
DISCID=790ac40a
DTITLE=The Jimi Hendrix Experience - No More A Rolling Stone CD 1
DYEAR=1967
DGENRE=Rock
TTITLE0=Introduction
TTITLE1=Killin' Floor
TTITLE2=Foxy Lady
TTITLE3=Like A Rolling Stone
TTITLE4=Rock Me Baby
TTITLE5=Hey Joe
TTITLE6=Can You See Me
TTITLE7=The Wind Cries Mary
TTITLE8=Purple Haze
TTITLE9=Wild Thing
EXTD=YEAR: 1967
EXTT0=
EXTT1=
EXTT2=
EXTT3=
EXTT4=
EXTT5=
EXTT6=
EXTT7=
EXTT8=
EXTT9=
PLAYORDER=
